HIERARCHY
ROOT Hips
{
	OFFSET -0.001795 -0.223333 0.028219
	CHANNELS 6 Xposition Yposition Zposition Zrotation Yrotation Xrotation 
	JOINT LeftUpLeg
	{
		OFFSET 0.069520 -0.091406 -0.006815
		CHANNELS 3 Zrotation Yrotation Xrotation
		JOINT LeftLeg
		{
			OFFSET 0.034277 -0.375199 -0.004496
			CHANNELS 3 Zrotation Yrotation Xrotation
			JOINT LeftFoot
			{
				OFFSET -0.013596 -0.397961 -0.043693
				CHANNELS 3 Zrotation Yrotation Xrotation
				JOINT LeftToe
				{
					OFFSET 0.026358 -0.055791 0.119288
					CHANNELS 3 Zrotation Yrotation Xrotation
					End Site
					{
						OFFSET 0.000000 0.000000 0.000000
					}
				}
			}
		}
	}
	JOINT RightUpLeg
	{
		OFFSET -0.067670 -0.090522 -0.004320
		CHANNELS 3 Zrotation Yrotation Xrotation
		JOINT RightLeg
		{
			OFFSET -0.038290 -0.382569 -0.008850
			CHANNELS 3 Zrotation Yrotation Xrotation
			JOINT RightFoot
			{
				OFFSET 0.015774 -0.398415 -0.042312
				CHANNELS 3 Zrotation Yrotation Xrotation
				JOINT RightToe
				{
					OFFSET -0.025372 -0.048144 0.123348
					CHANNELS 3 Zrotation Yrotation Xrotation
					End Site
					{
						OFFSET 0.000000 0.000000 0.000000
					}
				}
			}
		}
	}
	JOINT Spine
	{
		OFFSET -0.002533 0.108963 -0.026696
		CHANNELS 3 Zrotation Yrotation Xrotation
		JOINT Spine1
		{
			OFFSET 0.005487 0.135180 0.001092
			CHANNELS 3 Zrotation Yrotation Xrotation
			JOINT Spine2
			{
				OFFSET 0.001457 0.052922 0.025425
				CHANNELS 3 Zrotation Yrotation Xrotation
				JOINT Neck
				{
					OFFSET -0.002778 0.213870 -0.042857
					CHANNELS 3 Zrotation Yrotation Xrotation
					JOINT Head
					{
						OFFSET 0.005152 0.064970 0.051349
						CHANNELS 3 Zrotation Yrotation Xrotation
						End Site
						{
							OFFSET 0.000000 0.000000 0.000000
						}
					}
				}
				JOINT LeftShoulder
				{
					OFFSET 0.078845 0.121749 -0.034090
					CHANNELS 3 Zrotation Yrotation Xrotation
					JOINT LeftArm
					{
						OFFSET 0.090977 0.030469 -0.008868
						CHANNELS 3 Zrotation Yrotation Xrotation
						JOINT LeftForeArm
						{
							OFFSET 0.259612 -0.012772 -0.027456
							CHANNELS 3 Zrotation Yrotation Xrotation
							JOINT LeftHand
							{
								OFFSET 0.249234 0.008986 -0.001171
								CHANNELS 3 Zrotation Yrotation Xrotation
								End Site
								{
									OFFSET 0.000000 0.000000 0.000000
								}
							}
						}
					}
				}
				JOINT RightShoulder
				{
					OFFSET -0.081759 0.118833 -0.038615
					CHANNELS 3 Zrotation Yrotation Xrotation
					JOINT RightArm
					{
						OFFSET -0.096012 0.032551 -0.009143
						CHANNELS 3 Zrotation Yrotation Xrotation
						JOINT RightForeArm
						{
							OFFSET -0.253742 -0.013329 -0.021401
							CHANNELS 3 Zrotation Yrotation Xrotation
							JOINT RightHand
							{
								OFFSET -0.255298 0.007772 -0.005559
								CHANNELS 3 Zrotation Yrotation Xrotation
								End Site
								{
									OFFSET 0.000000 0.000000 0.000000
								}
							}
						}
					}
				}
			}
		}
	}
}
MOTION
Frames: 10
Frame Time: 0.050000
0.000000 0.907837 0.000000 -2.813609 -11.350373 2.105626 5.526931 0.819173 11.925231 4.118768 -1.226745 14.238273 1.244727 1.806127 -3.357561 0.000000 0.000000 0.000000 -5.166258 1.994049 -23.377545 4.752912 -0.052578 16.871726 -2.662941 -8.084813 2.707735 0.000000 0.000000 0.000000 2.127904 -0.306213 4.869935 -1.490621 0.804422 2.762325 1.635958 -9.243107 7.003360 -2.195068 1.147106 -8.202857 0.000000 0.000000 0.000000 -20.961565 -0.681462 2.503105 -48.516300 -7.101918 -4.015111 -23.809986 -56.459127 18.729914 0.000000 0.000000 0.000000 16.827131 2.534955 -3.788919 51.483327 -14.732587 -10.838595 18.615180 41.295122 5.994468 0.000000 0.000000 0.000000 
-0.032843 0.910966 0.039044 -3.864821 -11.424596 3.882099 8.287604 0.359849 8.199677 2.942372 -1.036350 23.137277 2.061283 4.701863 0.770091 0.000000 0.000000 0.000000 -3.494171 2.185087 -22.716347 5.160128 -0.072668 18.669108 -2.889265 -7.892074 1.066550 0.000000 0.000000 0.000000 4.078261 -0.332146 3.395326 -2.779764 1.536266 4.194541 3.964384 -8.592146 5.017796 -4.403416 2.846721 -7.349601 0.000000 0.000000 0.000000 -23.918771 0.626770 1.894074 -47.927187 -4.353631 -5.129198 -27.499079 -53.288938 19.358093 0.000000 0.000000 0.000000 13.696571 1.394871 -3.344884 52.053758 -13.392279 -10.651415 20.385956 39.220415 6.257457 0.000000 0.000000 0.000000 
-0.061884 0.916784 0.074441 -4.312328 -11.444271 3.784327 7.973001 0.146424 2.589616 4.803162 -1.758666 35.388481 1.411875 4.715247 6.462785 0.000000 0.000000 0.000000 -1.621705 2.147491 -20.335922 5.057077 0.007147 19.817774 -3.586783 -8.817789 -0.500426 0.000000 0.000000 0.000000 5.640613 -0.560149 5.393609 -2.334802 1.209774 2.159026 2.826886 -6.532780 6.218939 -3.730956 2.364855 -9.334678 0.000000 0.000000 0.000000 -23.086610 1.408727 0.740233 -50.139193 -3.040301 -5.652493 -22.073112 -45.926988 13.466622 0.000000 0.000000 0.000000 13.214316 2.556668 -2.284409 51.410056 -10.492988 -9.325960 21.256156 39.644556 6.947159 0.000000 0.000000 0.000000 
-0.085618 0.918435 0.106639 -4.395274 -11.062192 3.805970 7.310571 -0.083744 -4.562644 4.141319 -1.346376 48.199293 2.874853 7.542096 6.530633 0.000000 0.000000 0.000000 -1.026005 1.843917 -17.466607 5.892350 -0.253245 18.738974 -4.451456 -10.047457 -2.532233 0.000000 0.000000 0.000000 6.071194 -0.619887 5.787258 -2.316131 1.192057 2.067180 2.545313 -5.816020 7.255480 -4.413021 2.882257 -9.818608 0.000000 0.000000 0.000000 -22.685691 0.549926 1.036476 -50.383527 -1.808848 -6.182740 -17.990726 -44.691168 11.111709 0.000000 0.000000 0.000000 13.725426 6.337567 -0.514806 49.003324 -6.691341 -7.159344 19.506809 42.056667 6.952754 0.000000 0.000000 0.000000 
-0.104821 0.921869 0.137781 -4.470794 -11.685463 3.413455 6.391971 -0.269717 -11.900151 1.180970 1.087580 56.637428 4.771187 10.697724 4.289058 0.000000 0.000000 0.000000 0.205173 1.391005 -12.964593 4.815041 -0.056144 16.264377 -4.492145 -8.832345 -4.962066 0.000000 0.000000 0.000000 5.896257 -0.793438 8.301406 -3.468832 1.785723 2.214754 4.330742 -3.195951 7.343152 -4.052357 2.743156 -11.016482 0.000000 0.000000 0.000000 -22.277670 -0.266196 0.962879 -51.312311 -0.484452 -6.722247 -16.283897 -42.364864 9.510030 0.000000 0.000000 0.000000 12.358657 6.879854 0.358970 48.420379 -0.883839 -4.900426 18.607189 43.706914 7.183857 0.000000 0.000000 0.000000 
-0.120799 0.924026 0.170044 -4.390276 -11.557837 3.395352 5.238768 -0.513251 -19.550116 -2.085849 3.588688 59.990736 6.337488 13.134854 -0.325806 0.000000 0.000000 0.000000 1.174426 1.053483 -9.880314 4.305273 -0.040252 13.973289 -5.517157 -11.248893 -5.545832 0.000000 0.000000 0.000000 5.702281 -0.875403 9.657863 -3.092315 1.541649 1.163011 4.302025 -0.052977 8.585698 -3.301535 2.491521 -11.849877 0.000000 0.000000 0.000000 -21.950649 -2.023312 1.121105 -51.009096 0.634859 -7.057149 -16.585793 -40.276338 8.693276 0.000000 0.000000 0.000000 11.077859 8.531398 1.840036 48.921574 3.896016 -3.333507 15.473312 46.989281 7.097443 0.000000 0.000000 0.000000 
-0.134610 0.924742 0.204352 -3.969268 -11.067594 3.234504 4.209412 -0.778893 -26.731594 -4.712236 4.737642 56.371147 8.107816 16.607540 -1.437405 0.000000 0.000000 0.000000 1.139482 0.631249 -6.376805 4.269317 -0.070158 13.370143 -5.894570 -11.160864 -8.095545 0.000000 0.000000 0.000000 5.610839 -0.952093 10.844501 -3.981872 1.994789 1.427852 5.025128 3.153259 9.046494 -2.124423 2.026370 -12.639534 0.000000 0.000000 0.000000 -22.225105 -4.467169 1.557956 -51.232675 2.553763 -7.709437 -17.834821 -41.476964 9.045671 0.000000 0.000000 0.000000 11.021666 9.229517 2.747520 47.912483 8.216683 -1.736202 10.512813 49.536689 6.017450 0.000000 0.000000 0.000000 
-0.145986 0.920463 0.242159 -3.486621 -10.008060 2.193286 4.161401 -0.879025 -30.836524 -7.187945 4.884203 48.118415 8.488555 17.317874 -2.489309 0.000000 0.000000 0.000000 1.359014 0.269788 -3.109811 3.683754 0.079337 15.217013 -6.450543 -11.984181 -10.394776 0.000000 0.000000 0.000000 5.085947 -1.016203 12.811336 -3.780464 1.890957 1.470827 5.110584 5.753824 9.455369 -1.204858 1.824610 -14.646428 0.000000 0.000000 0.000000 -23.517233 -6.808439 1.895584 -49.910137 3.932939 -7.866198 -18.756425 -43.231605 9.399220 0.000000 0.000000 0.000000 10.562047 11.990276 4.541830 47.189975 11.986354 -0.411266 0.390766 53.427919 2.333490 0.000000 0.000000 0.000000 
-0.155032 0.913029 0.284435 -3.169846 -9.189939 1.600603 3.974124 -1.018435 -32.622089 -7.018979 3.068485 34.345047 8.793964 17.936600 -0.686377 0.000000 0.000000 0.000000 1.327023 -0.134829 0.747017 3.461511 0.104649 15.472784 -6.485594 -10.927121 -13.382354 0.000000 0.000000 0.000000 4.710051 -1.041394 13.910465 -4.424087 2.218929 1.634413 5.447320 7.867752 9.649732 -0.180742 1.573958 -16.550098 0.000000 0.000000 0.000000 -23.827317 -8.747149 2.170378 -49.359275 5.526604 -8.187741 -19.668714 -45.452514 9.952174 0.000000 0.000000 0.000000 11.416098 14.823188 6.371693 44.107059 16.221320 0.927964 -9.574742 53.288269 -2.019257 0.000000 0.000000 0.000000 
-0.161213 0.901646 0.332098 -2.861792 -7.875268 0.655966 3.813597 -1.191893 -31.926323 -5.054863 1.157138 18.728079 8.586550 17.509178 2.623417 0.000000 0.000000 0.000000 1.584788 -0.570810 4.925836 2.593877 0.262234 15.801566 -6.742298 -10.970378 -16.126055 0.000000 0.000000 0.000000 3.992291 -1.060316 15.770359 -4.584318 2.248830 0.719303 5.280270 9.173802 10.001802 -0.630162 2.172797 -17.898664 0.000000 0.000000 0.000000 -25.205735 -9.567401 1.874975 -46.469969 6.912589 -7.959367 -23.296555 -48.285721 11.992583 0.000000 0.000000 0.000000 12.959701 17.926954 8.476973 41.382777 20.450971 2.051515 -15.364647 53.716289 -4.560493 0.000000 0.000000 0.000000 
